<svg width="270" height="270" viewBox="0 0 270 270" fill="none" xmlns="http://www.w3.org/2000/svg">
<path d="M121.04 131.37C121.01 131.28 121 131.17 121 131.07C121 130.17 121 129.28 120.95 128.38C120.86 127.11 120.68 125.85 120.45 124.73C120.19 123.46 119.84 122.22 119.47 121.15C119.09 120.07 118.65 119.01 118.2 118.13C117.73 117.19 117.21 116.28 116.65 115.44C116.63 115.41 116.61 115.39 116.6 115.36C116.59 115.34 116.58 115.32 116.58 115.32C116.07 114.58 115.53 113.87 114.95 113.2C114.95 113.19 114.94 113.18 114.93 113.18L114.89 113.13C114.32 112.49 113.72 111.89 113.14 111.37C113.11 111.35 113.09 111.32 113.06 111.3L113.05 111.29C112.48 110.8 111.88 110.34 111.26 109.91C110.68 109.52 110.08 109.17 109.46 108.85C108.81 108.52 108.14 108.24 107.48 108.01C106.83 107.8 106.18 107.62 105.67 107.52C105.05 107.4 104.42 107.31 103.78 107.27C103.16 107.23 102.53 107.24 101.91 107.27C101.33 107.32 100.76 107.4 100.19 107.5C99.5599 107.63 98.9399 107.8 98.3199 108.01C97.7299 108.22 97.1599 108.46 96.7499 108.66C96.0799 109 95.4399 109.37 94.8199 109.78C94.2799 110.16 93.7499 110.57 93.2399 111C92.6199 111.55 92.0299 112.14 91.4799 112.76C90.9599 113.37 90.4799 114 90.0199 114.66C89.4799 115.48 88.9799 116.32 88.5499 117.18C88.0699 118.17 87.6499 119.18 87.3399 120.07C86.9799 121.15 86.6799 122.24 86.4799 123.19C86.2299 124.45 86.0499 125.72 85.9599 127C85.8899 128.24 85.8899 129.47 85.9599 130.71C86.0599 132.06 86.2499 133.39 86.5099 134.71C86.7699 135.89 87.0899 137.05 87.4899 138.19C87.8599 139.21 88.2799 140.2 88.6799 141.02C89.1999 142.06 89.7899 143.07 90.3499 143.9C90.8999 144.69 91.4799 145.44 92.0599 146.1C92.6299 146.73 93.2199 147.33 93.8499 147.89C93.9299 147.96 93.9899 148.03 94.0499 148.12C96.4899 145.83 99.1099 143.74 101.82 141.81C106.16 138.73 110.77 136.08 115.57 133.78C117.35 132.93 119.18 132.12 121.04 131.37ZM129.85 174.54C138.2 164.8 144.53 152.23 143.64 139.15C143.61 138.64 143.55 138.13 143.49 137.63C142.9 137.78 142.28 137.86 141.63 137.86C137.21 137.56 133.94 134.06 131.51 130.33C130.03 130.78 128.57 131.25 127.14 131.74C122.85 133.24 118.66 135.01 114.64 137.03C111.21 138.78 107.88 140.71 104.69 142.87C102.02 144.69 99.4599 146.67 97.1499 148.7C95.1699 150.47 93.2799 152.34 91.5299 154.33C90.0799 156.01 88.7299 157.76 87.4899 159.6C86.5299 161.07 85.6399 162.58 84.9199 164C84.2099 165.45 83.5799 166.94 83.0399 168.46C82.6199 169.73 82.2699 171.01 82.0099 172.21C81.7599 173.51 81.5799 174.81 81.4899 176.09C81.4299 177.23 81.4299 178.36 81.4999 179.5C81.5899 180.61 81.7299 181.7 81.9499 182.78C82.1799 183.83 82.4699 184.86 82.8099 185.88C83.1899 186.93 83.6299 187.95 84.1199 188.95C84.6399 189.95 85.2099 190.9 85.8299 191.83C86.5499 192.88 87.3399 193.88 88.1799 194.84C89.1099 195.87 90.0999 196.84 91.1399 197.76C91.3899 197.97 91.6399 198.18 91.8899 198.39C92.2999 198.06 92.9399 197.93 93.5099 197.81C99.2299 196.09 104.72 193.68 109.79 190.63C117.11 186.11 124.11 180.92 129.85 174.54ZM193.25 129.29C193.76 120.05 192.34 110.29 187.18 102.52C182 94.0299 171.52 93.2099 165.8 101.53C161.92 107.71 161.74 116.31 163.72 123.14C163.75 123.18 163.77 123.23 163.79 123.27C168.24 123.36 172.68 123.76 177.06 124.5C179.82 124.96 182.56 125.58 185.24 126.37C187.97 127.17 190.67 128.11 193.25 129.29ZM206.48 176.55C206.87 175.96 207.25 175.36 207.6 174.76C200.09 176.61 192.28 177.26 184.57 176.73C163.7 175.68 154.08 163.23 146.03 145.43C143.9 166.35 128.06 182.89 110.6 193.07C106.04 195.76 101.2 197.95 96.1699 199.62C95.6499 199.72 94.9699 200.01 94.2899 200.24C94.4699 200.37 94.6499 200.49 94.8299 200.62C94.8399 200.62 94.8499 200.63 94.8599 200.64C94.8899 200.66 94.9199 200.68 94.9299 200.68C96.5499 201.75 98.2299 202.72 99.9399 203.58C102.13 204.66 104.38 205.59 106.53 206.33C109.39 207.31 112.32 208.08 115.12 208.65C118.69 209.36 122.28 209.82 125.91 210.07C130.25 210.35 134.59 210.32 138.93 210.03C143.72 209.68 148.46 209.02 153 208.1C157.69 207.12 162.29 205.86 166.79 204.32C166.83 204.3 166.86 204.29 166.9 204.28C166.92 204.27 166.93 204.27 166.93 204.27C171.24 202.75 175.44 200.98 179.46 198.97C182.9 197.21 186.23 195.26 189.43 193.11C192.09 191.28 194.64 189.31 197.07 187.18C198.96 185.48 200.75 183.7 202.39 181.86C202.41 181.83 202.44 181.8 202.46 181.77H202.47C203.91 180.1 205.25 178.36 206.48 176.55ZM212.56 159.93C212.62 158.75 212.61 157.58 212.54 156.41C212.43 155.25 212.27 154.11 212.06 153.09C211.84 152.13 211.58 151.19 211.27 150.25C210.91 149.26 210.51 148.3 210.06 147.36C209.52 146.31 208.94 145.31 208.39 144.45C207.59 143.27 206.72 142.16 205.78 141.09C204.86 140.09 203.89 139.14 202.88 138.24C201.74 137.27 200.56 136.36 199.33 135.51C197.69 134.42 196 133.43 194.25 132.53C191.93 131.39 189.55 130.41 187.11 129.57C184.39 128.67 181.63 127.94 178.99 127.4C175.34 126.68 171.66 126.2 167.95 125.95C163.65 125.69 159.34 125.72 155.04 126C153.88 126.08 152.73 126.18 151.58 126.3C151.52 126.63 151.46 126.95 151.4 127.25C150.61 130.65 148.83 134.54 145.88 136.53C146.3 138.48 146.81 140.38 147.47 142.27C151.59 152.59 158.61 165.13 168.8 170.24C181.15 176.09 195.69 175.14 208.59 171.92C208.8 171.86 208.99 171.86 209.16 171.89C209.88 170.43 210.5 168.93 211.04 167.38C211.42 166.2 211.75 165 212 163.87C212.29 162.57 212.46 161.26 212.56 159.93ZM214.83 154.34C215.27 157.17 215.17 160.09 214.74 162.91C214.32 165.62 213.5 168.26 212.44 170.79C210.35 175.79 207.17 180.27 203.55 184.28C199.85 188.39 195.54 191.93 191 195.06C186.38 198.24 181.43 200.95 176.32 203.23C171.26 205.49 166.02 207.35 160.68 208.83C155.34 210.31 149.88 211.38 144.38 212.03C140.31 212.51 136.22 212.77 132.13 212.77C130.9 212.77 129.67 212.75 128.45 212.7C123.2 212.49 117.96 211.88 112.83 210.71C107.86 209.58 102.99 207.93 98.4499 205.62C93.5699 203.14 89.1099 199.87 85.5799 195.67C82.1199 191.56 79.8299 186.52 79.1499 181.19C78.4599 175.8 79.4699 170.26 81.5799 165.29C83.6099 160.52 86.5399 156.22 89.9599 152.34C90.7099 151.48 91.4899 150.65 92.2999 149.84C92.2299 149.8 92.1499 149.74 92.0899 149.68C88.8399 146.8 86.4899 142.97 85.0899 138.88C83.4999 134.26 83.0199 129.26 83.7399 124.42C84.4499 119.65 86.3099 114.96 89.4699 111.28C91.0999 109.39 93.0399 107.78 95.2599 106.62C97.5099 105.44 99.9899 104.82 102.53 104.74C104.86 104.67 107.2 105.17 109.36 106.05C111.53 106.94 113.49 108.28 115.21 109.86C118.16 112.58 120.34 116.14 121.71 119.9C122.74 122.76 123.33 125.74 123.5 128.77C123.53 129.32 123.54 129.86 123.54 130.41C125.73 129.58 127.95 128.82 130.2 128.14C129.91 127.64 129.64 127.15 129.38 126.68C129.14 125.99 128.56 125.21 128.36 124.44C128.01 123.57 127.97 122.57 128.52 121.8C128.62 121.48 128.82 121.21 129.2 121.06C129.28 121.02 129.36 120.99 129.44 120.95C129.62 120.85 129.81 120.76 130 120.71C131 120.28 132 119.88 133.02 119.5C138.12 117.76 143.97 115.62 149.3 117.5C151.66 118.62 152.11 121.23 151.96 123.78C154.7 123.51 157.46 123.35 160.21 123.3C160.52 123.3 160.83 123.29 161.14 123.28C160.84 122.2 160.69 120.98 160.49 120.33C159.55 113.49 159.95 105.78 163.94 99.9199C173.23 87.8699 186.58 93.1299 191.92 105.79C193.8 109.86 194.81 114.27 195.48 118.68C196.02 122.52 195.96 126.42 195.74 130.29C195.74 130.35 195.73 130.41 195.72 130.48C200.03 132.69 204.08 135.48 207.36 139.07C208.34 140.14 209.27 141.25 210.09 142.45C210.91 143.65 211.64 144.88 212.3 146.16C213.57 148.7 214.39 151.5 214.83 154.34Z" fill="#856EFA"/>
<path d="M108.93 126.18C109.02 128.17 108.61 130.38 107.19 131.88C106.43 132.68 105.43 133.23 104.31 133.31C104.2 133.32 104.1 133.32 103.99 133.32C102.84 133.32 101.78 132.89 100.85 132.2C98.8302 130.7 97.7402 128.17 97.3902 125.74C97.0802 123.6 97.4302 121.1 98.8402 119.38C98.8602 119.36 98.8802 119.33 98.8902 119.31C98.9002 119.29 98.9302 119.27 98.9502 119.24C99.6402 118.52 100.44 117.98 101.44 117.78C103.36 117.4 105.17 118.44 106.42 119.82C107.2 120.68 107.78 121.73 108.2 122.8C108.63 123.88 108.88 125.04 108.93 126.18Z" fill="#856EFA"/>
<path d="M181.29 109.46C181.61 110.67 181.76 111.94 181.73 113.2C181.69 114.63 181.46 116.08 180.9 117.4C180.54 118.23 180.04 118.99 179.34 119.56C178.8 120 178.1 120.27 177.4 120.27C177.38 120.27 177.36 120.27 177.35 120.27C176.75 120.25 176.18 120.06 175.68 119.72C175.01 119.28 174.5 118.62 174.12 117.92C173.62 116.99 173.31 116 173.11 114.97C172.88 113.81 172.83 112.59 172.92 111.41C173 110.36 173.21 109.33 173.56 108.34C173.73 107.87 173.95 107.42 174.21 107C174.21 107 174.21 107 174.22 106.99C174.68 106.19 175.43 105.54 176.3 105.23C177.68 104.73 179.09 105.52 179.94 106.6C180.58 107.44 181.01 108.45 181.29 109.46Z" fill="#856EFA"/>
<path d="M81.3901 72.6799C82.0701 67.5499 77.0901 63.9099 73.4401 61.1799C69.4001 58.1999 63.2301 57.9599 60.4001 62.6299C57.4901 67.5199 55.4601 73.0899 55.6101 78.7199C55.9901 81.8999 55.9901 87.6399 60.5001 87.1599C66.0101 86.3599 70.5601 82.6799 74.9401 79.4999C77.3501 77.3999 80.4901 75.8599 81.3901 72.6799ZM76.4301 60.2699C81.0301 63.6199 86.5001 69.8999 82.7801 75.7199C78.6001 80.6799 63.3901 92.7599 56.8901 88.8799C53.1401 86.3099 53.1501 80.4499 53.1201 76.3399C54.0701 69.7599 56.7401 59.4299 63.6901 56.9899C68.1601 55.4699 72.9301 57.4299 76.4301 60.2699Z" fill="#856EFA"/>
<path d="M166.96 236.29C166.94 236.26 166.92 236.23 166.91 236.2C166.93 236.23 166.95 236.26 166.96 236.29ZM170.22 235.62C170.22 235.61 170.22 235.6 170.23 235.59C170.18 235.51 170.14 235.42 170.11 235.32C169.86 235.39 169.62 235.46 169.38 235.53C169.43 235.64 169.47 235.74 169.51 235.84C169.65 235.92 169.81 235.95 169.96 235.99C170.02 235.85 170.11 235.72 170.22 235.62ZM176.25 261.19C179.93 261.17 188.8 249.43 186.71 245.94C185.76 244.18 183.99 243.13 182.28 242.27C178.24 240.44 174.01 237.91 169.6 239.46C167.56 240.87 165.88 242.96 164.3 244.68C161.93 247.35 158.4 251.47 161.78 254.72C164.58 257.58 168.5 258.79 172.11 260.22C173.44 260.65 174.82 261.23 176.25 261.19ZM227.09 201.23C231.5 195.15 231.64 185.52 226.18 180.11C220 192.17 209.22 200.63 195.56 209.39C181.11 218.25 164.9 224.5 148.09 226.9C139.55 227.92 130.89 228 122.3 227.76C106.42 226.89 90.2499 222.65 76.6399 214.23C73.3299 223.76 84.4799 230.94 92.3099 233.55C96.4899 235 100.68 235.51 105 236.07C113.32 237.08 121.68 238.2 130.07 237.91C140.08 237.53 150.14 236.98 160.01 235.25C172.04 232.77 183.57 228.57 194.6 223.25C202.74 219.41 210.65 215.18 217.89 209.81C221.3 207.37 224.7 204.73 227.09 201.23ZM221.46 183.46C231.17 168.69 230.19 150.21 228.11 133.44C227.26 126.44 226.25 119.35 223.99 112.67C220.79 103.17 214.53 95.22 209.88 86.45C204.11 75.88 202.71 63.76 201.18 52C200.41 45.56 199.91 38.76 196.86 32.95C194.66 28.42 190.98 23.99 185.66 23.51C180.04 23.1 174.93 26.25 170.78 29.71C161.03 38.2 157.82 51.03 152.87 62.43C152.84 62.5 152.81 62.57 152.77 62.64C155.63 62.86 158.49 63.26 161.34 63.85C162.93 64.1 162.64 66.54 161 66.33C157.81 65.66 154.59 65.25 151.36 65.06C150.93 65.33 150.41 65.26 150.03 64.99C141.03 64.6 131.97 65.82 123.17 67.7C113.37 69.78 103.6 72.13 94.0799 75.27C94.0999 75.26 94.1099 75.25 94.1199 75.25C94.0799 75.27 94.0299 75.29 93.9899 75.3H93.9799C93.4899 75.46 92.9299 75.3 92.5999 74.88C91.8099 73.67 92.9199 72.87 94.0499 72.66C96.3899 71.89 98.7499 71.16 101.12 70.49C100.75 69.88 100.38 69.26 100.01 68.64C96.1799 62.19 91.3899 56.07 85.7999 51.12C77.1199 43.1 63.2499 37.29 53.2199 46.23C45.5899 53.11 43.3999 64.03 42.4499 73.79C42.0299 80.42 42.3599 87.25 43.5999 93.67C45.4599 101.15 47.0499 108.72 46.4299 116.48C45.6799 133.23 42.5099 150.29 45.9699 166.91C51.0899 191.41 70.1999 212.05 93.9499 219.67C105.82 223.9 118.1 225.74 130.62 225.39C146.65 225.7 162.37 222.48 177.07 216.17C193.61 208.83 210.67 198.18 221.46 183.46ZM229.69 126.38C231.09 136.29 232.27 146.3 231.92 156.32C231.62 164.73 230 171.76 227.25 177.87C227.38 177.91 227.52 177.98 227.66 178.09C228.7 178.98 229.57 180 230.27 181.18C234.75 188.98 233.12 199.15 226.87 205.5C222.47 210.14 216.92 213.55 211.61 217.06C199.39 224.22 186.44 230.35 172.88 234.51C172.9 234.63 172.9 234.75 172.88 234.89C172.79 235.36 172.73 235.91 172.6 236.43C175.96 236.48 179.35 238.2 182.35 239.52C185.88 241.07 190.11 243.87 189.46 248.29C188.92 252.28 186.14 255.55 183.78 258.67C180.73 262.53 177 265.06 172.07 262.84C164.64 260.39 152.97 255.38 159.97 246.05C161.82 243.47 164.03 241.15 166.29 238.92C166.76 238.53 167.22 237.99 167.75 237.62C167.37 237.23 167.1 236.72 166.9 236.2C166.81 236.22 166.73 236.24 166.65 236.27C157.56 238.77 148.09 239.39 138.71 240.02C132.4 240.39 126.07 240.7 119.75 240.16C108.11 238.83 95.7199 238.84 85.1699 233.14C78.6699 229.7 72.3599 223.18 73.6499 215.26C73.7799 214.42 74.0099 213.52 74.4099 212.81C72.2999 211.4 70.2499 209.89 68.2899 208.27C54.2399 196.23 44.2599 178.95 42.4399 160.4C40.3999 143.09 44.5599 125.77 43.8999 108.47C43.4899 102.43 41.4899 96.96 40.6199 91.05C40.1199 87.55 39.8599 84 39.7999 80.46C39.7499 66.07 42.7699 47.11 57.4499 40.62C77.1299 33.82 94.3299 53.82 103.2 69.08C103.34 69.28 103.5 69.52 103.64 69.76C104.66 69.49 105.68 69.22 106.71 68.96C120.83 65.4 135.46 61.85 150.07 62.46C152.34 57.82 153.94 52.9 155.87 48.12C158.74 41.12 162.41 34.26 167.89 28.96C176.5 20.53 189.79 16.58 197.27 28.65C200.41 33.4 202.13 38.95 202.79 44.58C203.82 52.47 204.62 60.42 206.2 68.23C208.23 81.59 216.47 92 222.72 103.49C226.49 110.6 228.58 118.44 229.69 126.38Z" fill="#856EFA"/>
<path d="M188.46 63.5499C194.3 62.8699 192.07 55.3799 191.35 51.4899C190.78 48.7299 190.17 46.0499 189.4 43.3499C187.01 32.3799 181.76 35.6799 176.01 42.0999C174.85 43.4299 173.75 44.8499 172.85 46.3599C172.63 46.6599 172.44 46.9999 172.26 47.3399C172.2 47.4599 172.14 47.5699 172.08 47.6799C171.2 49.4099 170.46 51.2299 169.38 52.8699C169.34 52.9599 169.29 53.0499 169.23 53.1299C168.46 54.9699 167.3 57.0599 168.3 58.9699C170.82 63.3199 183.73 63.8899 188.46 63.5499ZM191.89 42.9799C193.8 51.5399 199.98 67.3799 185.21 66.1899C172.38 65.4299 158.74 63.5699 169.16 48.0799C169.24 47.9199 169.32 47.7599 169.39 47.5899C169.4 47.5699 169.41 47.5399 169.42 47.5199C169.63 47.0199 169.86 46.5299 170.12 46.0499C170.14 45.9999 170.17 45.9499 170.19 45.9099C170.47 45.3499 170.77 44.7999 171.11 44.2799C171.34 43.9499 171.61 43.5299 171.93 43.1899C173.24 41.3999 174.79 39.7399 176.31 38.1999C183.75 30.5199 189.76 32.8199 191.89 42.9799Z" fill="#856EFA"/>
<path d="M83.2999 102.08C83.7799 102.56 83.7799 103.37 83.2999 103.85C82.2799 104.85 81.2699 105.87 80.4199 106.81C79.0899 108.35 77.8099 109.99 77.0999 111.91C76.9899 113.36 75.7199 114.28 74.6499 112.96C73.8499 109.53 79.2499 104.39 81.5299 102.07C82.0199 101.61 82.8099 101.6 83.2999 102.08Z" fill="#856EFA"/>
<path d="M196.06 90.9699C197.16 92.2399 195.22 93.8999 194.14 92.5799C192.53 90.2199 190.26 88.3499 187.72 87.0599C186.6 86.5199 185.43 86.0799 184.26 85.6799C183.57 85.4799 183.08 84.8399 183.28 84.1099C184.04 82.0299 186.93 84.2199 188.32 84.5799C191.36 86.0099 194.14 88.1799 196.06 90.9699Z" fill="#856EFA"/>
<path d="M176.49 251.9C177.06 251.27 178.03 250.86 177.7 249.99C176.94 248.24 175.23 247.23 173.61 246.47C173.32 246.31 173 246.16 172.69 246.35C171.55 247.38 170.58 249.21 170.55 250.73C171 252.01 172.19 253.43 173.56 253.69C174.72 253.56 175.66 252.6 176.49 251.9ZM180.97 249.59C181.56 252.57 175.65 257.97 172.71 256.35C170.49 255.12 168.05 253.35 167.48 250.74C167.43 250.37 167.44 250.01 167.52 249.66C167.56 249.26 167.66 248.86 167.85 248.45C168.04 248.02 168.27 247.63 168.52 247.24C169.83 244.64 171.36 241.69 174.68 243.75C174.69 243.76 174.7 243.77 174.72 243.77C174.79 243.8 174.86 243.84 174.92 243.88C174.92 243.88 174.93 243.88 174.94 243.89C175.32 244.11 175.69 244.33 176 244.46C178.01 245.69 180.39 247.13 180.97 249.59Z" fill="#856EFA"/>
<path d="M213.01 203.68C213.94 204.79 212.43 206.37 211.28 205.47C210.8 205.12 210.56 204.46 210.74 203.89C210.71 203.96 210.7 204.04 210.69 204.11C210.8 202.95 212.5 202.62 213.01 203.68Z" fill="#856EFA"/>
<path d="M219.66 198.15C221.67 198.79 219.96 201.88 218.38 200.42C217.43 199.54 218.48 197.74 219.66 198.15Z" fill="#856EFA"/>
<path d="M225.23 192.81C227.03 192.78 226.8 195.96 225.03 195.69C223.45 195.48 223.64 192.81 225.23 192.81Z" fill="#856EFA"/>
</svg>
