<svg width="270" height="270" viewBox="0 0 270 270" fill="none" xmlns="http://www.w3.org/2000/svg">
<path d="M144.51 110.79C144.61 109.19 144.47 107.7 144 106.34C141.58 103.91 138.13 106.98 135.79 108.15C132.83 109.91 129.93 111.76 127.03 113.62C119.26 118.49 111.63 123.66 103.26 127.47C95.7801 130.99 85.3101 135.07 77.5101 132.88C78.0801 133.53 78.6601 134.17 79.2401 134.79C80.2301 135.87 81.2401 136.93 82.2501 137.99C82.6101 138.37 82.9701 138.74 83.3301 139.11C83.5801 139.37 83.8301 139.64 84.1001 139.88C84.1701 139.95 84.2601 140 84.3401 140.06C84.4601 140.14 84.5901 140.21 84.7201 140.27C84.8401 140.32 84.9701 140.38 85.1001 140.42C85.3101 140.48 85.5201 140.53 85.7301 140.58C86.0001 140.63 86.2801 140.66 86.5501 140.69C87.0601 140.72 87.5701 140.7 88.0501 140.67C88.7501 140.6 89.4301 140.49 90.1201 140.35C91.4101 140.06 92.6701 139.68 93.8101 139.28C98.0701 137.74 102.19 135.82 106.22 133.76L106.35 133.69C110.82 131.37 115.18 128.83 119.52 126.28C121.83 124.92 124.15 123.61 126.46 122.25C128.49 121.05 130.48 119.79 132.49 118.57C135.43 116.8 138.38 115.06 141.23 113.14C141.59 112.89 141.95 112.65 142.3 112.4C143.04 111.87 143.78 111.33 144.51 110.79ZM179.7 23.35C177.88 20.28 175.77 17.46 173.68 14.61C172.79 18.41 168.9 21.49 166.56 24.49C161.22 30.83 155.28 37.09 152.02 44.78C151 47.85 151.12 49.78 152.37 50.8C153.25 45.21 178.51 27.53 179.7 23.35ZM212.48 94.87C216.85 87.23 223.28 79.38 222.99 70.19C222.86 68.02 222.33 66.15 221.48 64.53C221.47 64.52 221.47 64.51 221.46 64.51C221.44 64.46 221.42 64.41 221.39 64.37C221.38 64.34 221.36 64.31 221.34 64.28C221.23 64.06 221.11 63.85 220.96 63.65C220.94 63.61 220.91 63.58 220.89 63.55C220.87 63.53 220.85 63.51 220.84 63.48C220.81 63.43 220.78 63.38 220.75 63.33C220.71 63.27 220.67 63.21 220.63 63.15C220.63 63.14 220.62 63.13 220.61 63.13C220.59 63.11 220.58 63.09 220.57 63.07C215.64 56.07 204.27 54.48 195.98 53.92C184.07 53.21 172.12 53.47 160.2 53.99C152.4 54.86 146.79 53.43 149.58 44.24C153.38 34.94 160.75 27.62 167.16 20.06C183.09 3.95003 148.4 5.39003 139.54 4.85003C132.23 4.58003 124.93 4.56003 117.62 4.78003C112.32 5.01003 105.95 4.33003 102.32 9.01003C100.77 10.9 99.5801 12.99 98.6101 15.19C98.1101 16.21 97.6701 17.27 97.2801 18.34C97.2801 18.33 97.2801 18.32 97.2901 18.31C97.2401 18.44 97.1901 18.58 97.1501 18.71C96.9701 19.1 96.7901 19.51 96.6301 19.91C96.6201 19.93 96.6101 19.94 96.6101 19.96C96.6101 19.96 96.6101 19.97 96.6101 19.98C96.6001 19.99 96.6001 20.01 96.5901 20.02C96.5901 20.03 96.5801 20.04 96.5801 20.05C96.5701 20.07 96.5601 20.1 96.5501 20.12C96.5501 20.13 96.5401 20.14 96.5401 20.15C96.5401 20.14 96.5401 20.14 96.5401 20.13C96.5301 20.16 96.5101 20.19 96.5001 20.22C96.4901 20.24 96.4801 20.27 96.4701 20.29C96.4501 20.34 96.4301 20.39 96.4101 20.44C96.3701 20.54 96.3401 20.63 96.3001 20.72C96.3001 20.73 96.3001 20.73 96.2901 20.74C96.2801 20.77 96.2701 20.79 96.2601 20.83C96.2501 20.86 96.2401 20.9 96.2201 20.93C96.1501 21.14 96.0701 21.34 96.0001 21.55C96.0001 21.56 95.9901 21.57 95.9901 21.57C95.5201 22.89 95.0801 24.21 94.6701 25.55C94.5501 25.94 94.4301 26.34 94.3201 26.73C94.1301 27.37 93.9601 28.01 93.8001 28.65C93.7501 28.87 93.6901 29.1 93.6401 29.32C93.5901 29.54 93.5401 29.77 93.5001 29.99C93.5001 30 93.4901 30.02 93.4901 30.03C93.4901 30.03 93.4901 30.03 93.4901 30.04C93.4501 30.23 93.4101 30.42 93.3801 30.62C87.9101 51.1 81.7801 71.41 76.0701 91.82C73.4101 100.73 69.7801 109.73 70.0601 119.17C71.5901 132.95 83.2001 132.55 93.6201 128.73C108.51 123.58 121.13 114.02 134.51 106C136.63 104.55 139.68 102.97 142.26 102.97C144.3 102.97 146.05 103.96 146.82 106.79C146.98 107.76 147.04 108.75 147.02 109.76C147.02 109.94 147.02 110.12 147 110.3C146.99 110.48 146.98 110.66 146.97 110.84C146.95 111.2 146.91 111.56 146.87 111.93C145.72 121.52 138.38 132.31 134.62 140.44C126.77 155.37 119.45 170.47 112.51 185.83C107.05 198.1 102.46 210.7 97.8301 223.29C95.7201 228.74 94.0001 234.3 92.7901 239.92C92.6601 240.69 92.4301 241.47 92.6701 242.24C92.9401 242.99 93.8601 243.12 94.5701 243.06C99.1101 242.3 102.97 239.39 106.55 236.65C110.68 233.33 114.51 229.69 118.24 225.93C145.49 197.81 165.51 163.99 187.51 131.86C195.87 119.56 204.68 107.55 212.48 94.87ZM230.59 79.97C230.85 79.34 231.09 78.7 231.31 78.05C230.93 77.51 230.49 77.01 230.15 76.45C230.1 76.39 230.04 76.33 230 76.25C228.56 74.02 227.06 71.84 225.5 69.71C225.68 71.73 225.51 73.85 224.94 76.05C223.82 80.51 221.49 84.57 219.24 88.54C209.19 105.86 197.12 121.93 186 138.54C166.19 167.89 147.52 198.3 123.27 224.31C117.97 229.74 103.57 245.27 94.6001 245.47C96.7101 248.09 99.1501 250.4 101.58 252.72C105.05 251.92 108.2 250.34 111.24 248.54C125.34 240.04 136.64 227.91 146.92 215.23C153.56 206.97 159.95 198.55 165.65 189.62C188.26 153.7 212.07 118.19 230.59 79.97ZM233.75 78.26C233.75 78.26 233.75 78.25 233.75 78.24C233.75 78.35 233.74 78.45 233.72 78.56C233.72 78.55 233.72 78.54 233.73 78.53C233.71 78.64 233.69 78.75 233.68 78.86C233.11 80.5 232.43 82.09 231.68 83.65C221.11 104.83 209.05 125.23 196.57 145.33C177.27 175.67 159.56 207.54 134.18 233.38C126.94 240.59 112.24 253.38 101.95 255.05C101.51 255.41 100.85 255.49 100.31 254.97C97.7801 252.56 95.2401 250.16 93.0001 247.47C91.9301 246.06 90.5001 244.64 90.2301 242.83C90.2301 242.8 90.2301 242.77 90.2301 242.74C89.7901 240.97 90.4801 238.81 90.8901 237.08C92.3701 230.61 94.7101 224.4 97.0801 218.22C100.83 207.67 104.84 197.2 109.32 186.93C116.81 170.02 124.98 153.39 133.6 137.03C136.21 131.26 142.1 122.1 143.96 114.27C143.16 114.83 142.36 115.38 141.54 115.92C138.32 118.02 134.99 119.94 131.71 121.96C129.56 123.28 127.41 124.59 125.21 125.85C122.87 127.2 120.55 128.56 118.22 129.92C113.9 132.44 109.53 134.92 105.03 137.13C103.01 138.12 100.98 139.07 98.9101 139.94C96.7501 140.85 94.5701 141.73 92.3201 142.37C90.6801 142.84 88.9201 143.22 87.1801 143.22C86.5701 143.22 85.9701 143.17 85.3701 143.07C84.4001 142.89 83.4601 142.55 82.6601 141.96C82.1401 141.57 81.7101 141.06 81.2601 140.59C79.7801 139.05 78.3001 137.5 76.8601 135.92C76.1401 135.12 75.4301 134.31 74.7201 133.5C73.9801 132.64 73.2801 131.76 72.5901 130.86C72.1901 130.34 71.7901 129.83 71.3901 129.31C71.1201 128.97 70.8101 128.63 70.6801 128.21C70.6801 128.19 70.6701 128.17 70.6701 128.16C69.6101 126.71 68.7401 124.92 68.1001 122.74C65.8501 111.01 71.5001 99.56 74.4801 88.43C79.8601 68.58 86.0801 48.95 91.1701 29.03V29.02C91.1801 28.97 91.1901 28.91 91.2101 28.85C91.2101 28.85 91.2101 28.84 91.2101 28.83C91.2601 28.63 91.3101 28.44 91.3601 28.24H91.3701C91.3901 28.08 91.4301 27.93 91.5001 27.79C91.9201 26.24 92.2901 24.68 92.7101 23.13C93.9201 18.72 95.5301 14.34 98.1401 10.56C99.3901 8.50003 100.94 6.63003 102.9 5.08003C106.51 2.31003 111.23 2.51003 115.55 2.34003C122.18 2.14003 128.81 2.05003 135.43 2.23003C143.96 2.94003 165.65 1.21003 172.15 8.64003C172.43 8.71003 172.69 8.88003 172.89 9.20003C174.65 11.75 176.53 14.21 178.31 16.73C181.62 21.98 184.51 22.93 179.1 28.21C173.05 34.19 166.11 39.24 159.95 45.09C157.99 47.1 156.33 48.96 154.77 51.21C154.72 51.35 154.66 51.48 154.58 51.6C155.44 51.71 156.47 51.69 157.67 51.57C160.99 51.41 164.32 51.26 167.65 51.16C182.22 51.07 197.23 49.91 211.38 54.01C216.59 55.47 220.78 58.57 223.22 62.67C223.94 63.45 224.57 64.57 225.14 65.1C227.61 68.17 229.8 71.45 231.98 74.74C232.03 74.79 232.08 74.85 232.12 74.91C232.39 75.33 232.69 75.73 232.99 76.12C233.02 76.17 233.04 76.21 233.06 76.25C233.1 76.32 233.14 76.39 233.18 76.46C233.21 76.51 233.24 76.56 233.27 76.61C233.3 76.67 233.33 76.73 233.36 76.79C233.44 76.95 233.51 77.13 233.57 77.3C233.6 77.39 233.62 77.48 233.65 77.57C233.67 77.63 233.68 77.69 233.69 77.75C233.69 77.75 233.69 77.75 233.69 77.76C233.71 77.82 233.71 77.88 233.72 77.95C233.75 78.05 233.76 78.15 233.75 78.26Z" fill="#856EFC"/>
</svg>
